<svg width="434" height="123" viewBox="0 0 434 123" fill="none" xmlns="http://www.w3.org/2000/svg">
<g clip-path="url(#clip0_3535_413)">
<path d="M146.727 4.08691H130.597V18.2869H146.727V4.08691Z" fill="white"/>
<path d="M363.697 50.1869H326.937V66.3169H363.697V50.1869Z" fill="white"/>
<path d="M160.087 88.1169H148.507C138.637 88.1169 130.597 80.0869 130.597 70.2069V28.5269H146.727V70.2069C146.727 71.1869 147.527 71.9869 148.507 71.9869H160.087V88.1169Z" fill="white"/>
<path d="M386.937 4.08691H370.807V18.2869H386.937V4.08691Z" fill="white"/>
<path d="M126.267 87.9469H114.687C104.807 87.9469 96.7773 79.9169 96.7773 70.0369V4.08691H112.907V70.0369C112.907 71.0169 113.707 71.8169 114.687 71.8169H126.267V87.9469Z" fill="white"/>
<path d="M326.937 44.6669V28.5369H313.577V4.09691H297.447V70.2169C297.447 80.0869 305.477 88.1269 315.357 88.1269H326.937V71.9969H315.357C314.377 71.9969 313.577 71.1969 313.577 70.2169V44.6669H326.937Z" fill="white"/>
<path d="M400.707 88.1169H389.127C379.257 88.1169 371.217 80.0869 371.217 70.2069V28.5269H387.347V70.2069C387.347 71.1869 388.147 71.9869 389.127 71.9869H400.707V88.1169Z" fill="white"/>
<path d="M434.227 44.6669V28.5369H420.867V4.09691H404.737V70.2169C404.737 80.0869 412.767 88.1269 422.647 88.1269H434.227V71.9969H422.647C421.667 71.9969 420.867 71.1969 420.867 70.2169V44.6669H434.227Z" fill="white"/>
<path d="M263.869 26.3569C258.399 26.3569 253.309 28.0769 249.029 31.0169V4.08691H232.879V88.1069H249.029V55.3969C249.099 48.2569 254.909 42.4869 262.059 42.4869C269.209 42.4869 275.099 48.3269 275.099 55.5269V88.1069H291.249V55.5269C291.249 39.4169 278.999 26.3469 263.879 26.3469L263.869 26.3569Z" fill="white"/>
<path d="M207.64 26.4269V32.1069C202.8 28.4969 196.91 26.3669 190.56 26.3669C174.17 26.3669 160.84 40.4869 160.84 57.8369C160.84 75.1869 174.17 89.3069 190.56 89.3069C196.92 89.3069 202.81 87.177 207.64 83.567V88.127C207.64 96.577 200.76 103.457 192.31 103.457C187.1 103.457 182.23 100.777 179.42 96.4169L167.18 107.047C173.08 114.867 182.4 119.587 192.32 119.587C209.67 119.587 223.79 105.467 223.79 88.1169V26.4269H207.66H207.64ZM192.31 73.1669C183.86 73.1669 176.98 66.2869 176.98 57.8369C176.98 49.3869 183.86 42.5069 192.31 42.5069C200.76 42.5069 207.64 49.3869 207.64 57.8369C207.64 66.2869 200.76 73.1669 192.31 73.1669Z" fill="white"/>
<path d="M32.3 46.177V5.14697C32.3 4.12697 31.07 3.61697 30.35 4.33697L0 34.657V65.617C0 72.277 6.15999 78.437 13.76 78.437H32.3V118.617C32.3 119.637 33.53 120.147 34.25 119.427L64.57 89.107V59.817C64.57 52.277 58.46 46.167 50.91 46.167H32.3V46.177Z" fill="#794DFC"/>
</g>
<defs>
<clipPath id="clip0_3535_413">
<rect width="434" height="123" fill="white"/>
</clipPath>
</defs>
</svg>
